<svg width="145" height="50" viewBox="0 0 145 50" fill="none" xmlns="http://www.w3.org/2000/svg">
<path d="M60.502 15.9434L60.424 16.9314L60.32 17.0354C60.0427 17.0354 59.7827 17.0527 59.54 17.0874C59.2973 17.1047 59.0893 17.174 58.916 17.2954C58.76 17.4167 58.6127 17.5727 58.474 17.7634C58.3527 17.954 58.292 18.292 58.292 18.7774C58.2747 19.02 58.2573 19.2454 58.24 19.4534C58.24 19.6614 58.2313 19.904 58.214 20.1814C58.214 20.4587 58.214 20.7967 58.214 21.1954C58.214 21.594 58.214 22.1054 58.214 22.7294V26.4734C58.214 27.0974 58.214 27.6087 58.214 28.0074C58.214 28.3887 58.214 28.7094 58.214 28.9694C58.2313 29.2294 58.24 29.4547 58.24 29.6454C58.2573 29.8187 58.2747 30.0094 58.292 30.2174C58.3267 30.7027 58.4047 31.0407 58.526 31.2314C58.6473 31.422 58.7773 31.578 58.916 31.6994C59.072 31.8207 59.2713 31.8987 59.514 31.9334C59.774 31.9507 60.0427 31.9594 60.32 31.9594L60.424 32.0634L60.502 33.0514L60.45 33.1554C60.3287 33.1554 60.1293 33.1467 59.852 33.1294C59.5747 33.112 59.2887 33.0947 58.994 33.0774C58.6993 33.06 58.4133 33.0427 58.136 33.0254C57.8587 33.008 57.6593 32.9994 57.538 32.9994H56.004C55.8827 32.9994 55.6833 33.008 55.406 33.0254C55.1287 33.0427 54.8427 33.06 54.548 33.0774C54.2533 33.0947 53.9673 33.112 53.69 33.1294C53.4127 33.1467 53.2133 33.1554 53.092 33.1554L53.04 33.0514L53.118 32.0634L53.248 31.9594C53.5253 31.9594 53.7853 31.9507 54.028 31.9334C54.288 31.8987 54.4873 31.8207 54.626 31.6994C54.7647 31.578 54.886 31.422 54.99 31.2314C55.1113 31.0407 55.2067 30.7027 55.276 30.2174C55.276 30.096 55.276 29.9574 55.276 29.8014C55.2933 29.628 55.302 29.42 55.302 29.1774C55.3193 28.9347 55.328 28.64 55.328 28.2934C55.328 27.9467 55.328 27.5134 55.328 26.9934V22.7554C55.328 22.1487 55.328 21.6374 55.328 21.2214C55.328 20.8054 55.3193 20.45 55.302 20.1554C55.302 19.8607 55.2933 19.6094 55.276 19.4014C55.276 19.1934 55.2673 18.9854 55.25 18.7774C55.2153 18.3267 55.1373 17.9974 55.016 17.7894C54.8947 17.5814 54.7647 17.4167 54.626 17.2954C54.47 17.174 54.2707 17.1047 54.028 17.0874C53.7853 17.0527 53.5253 17.0354 53.248 17.0354L53.118 16.9314L53.04 15.9434L53.092 15.8394C53.2133 15.8394 53.4127 15.848 53.69 15.8654C53.9673 15.8827 54.2533 15.9 54.548 15.9174C54.8427 15.9347 55.1287 15.952 55.406 15.9694C55.6833 15.9867 55.8827 15.9954 56.004 15.9954H57.538C57.6593 15.9954 57.8587 15.9867 58.136 15.9694C58.4133 15.952 58.6993 15.9347 58.994 15.9174C59.2887 15.9 59.5747 15.8827 59.852 15.8654C60.1293 15.848 60.3287 15.8394 60.45 15.8394L60.502 15.9434ZM71.5829 15.7094L76.0549 27.5134C76.2109 27.9467 76.3495 28.3107 76.4709 28.6054C76.5922 28.9 76.6875 29.1514 76.7569 29.3594C76.8435 29.5674 76.9129 29.7407 76.9649 29.8794C77.0342 30.0007 77.0949 30.1134 77.1469 30.2174C77.3549 30.6507 77.5629 30.9887 77.7709 31.2314C77.9962 31.4567 78.2129 31.63 78.4209 31.7514C78.6462 31.8554 78.8715 31.916 79.0969 31.9334C79.3222 31.9507 79.5475 31.9594 79.7729 31.9594L79.9029 32.0634L79.9809 33.0514L79.9289 33.1554C79.8075 33.1554 79.6255 33.1467 79.3829 33.1294C79.1402 33.112 78.8889 33.0947 78.6289 33.0774C78.3689 33.06 78.1175 33.0427 77.8749 33.0254C77.6495 33.008 77.4762 32.9994 77.3549 32.9994H75.4569C75.3355 32.9994 75.1362 33.008 74.8589 33.0254C74.5815 33.0427 74.2869 33.06 73.9749 33.0774C73.6802 33.0947 73.3942 33.112 73.1169 33.1294C72.8395 33.1467 72.6402 33.1554 72.5189 33.1554L72.4669 33.0514L72.5449 32.0634L72.6489 31.9594C73.0995 31.9594 73.4375 31.9074 73.6629 31.8034C73.9055 31.682 74.0269 31.37 74.0269 30.8674C74.0269 30.59 73.9749 30.2 73.8709 29.6974C73.7842 29.1774 73.5675 28.536 73.2209 27.7734L72.6749 26.5254H68.1249L67.6049 27.7734C67.2929 28.536 67.0589 29.186 66.9029 29.7234C66.7469 30.2607 66.6689 30.642 66.6689 30.8674C66.6689 31.2834 66.7555 31.5694 66.9289 31.7254C67.1022 31.8814 67.4142 31.9594 67.8649 31.9594L67.9949 32.0634L68.0729 33.0514L68.0209 33.1554C67.8995 33.1554 67.7089 33.1467 67.4489 33.1294C67.1889 33.112 66.9115 33.0947 66.6169 33.0774C66.3395 33.06 66.0709 33.0427 65.8109 33.0254C65.5509 33.008 65.3602 32.9994 65.2389 32.9994H63.7049C63.5835 32.9994 63.4015 33.008 63.1589 33.0254C62.9162 33.0427 62.6649 33.06 62.4049 33.0774C62.1449 33.0947 61.8935 33.112 61.6509 33.1294C61.4255 33.1467 61.2522 33.1554 61.1309 33.1554L61.1049 33.0514L61.1569 32.0634L61.2869 31.9594C61.5122 31.9594 61.7375 31.942 61.9629 31.9074C62.1882 31.8727 62.4135 31.7947 62.6389 31.6734C62.8642 31.552 63.0809 31.3874 63.2889 31.1794C63.5142 30.954 63.7395 30.668 63.9649 30.3214C64.0169 30.2174 64.0949 30.0614 64.1989 29.8534C64.3029 29.628 64.4675 29.238 64.6929 28.6834C64.9182 28.1287 65.2302 27.34 65.6289 26.3174C66.0275 25.2947 66.5562 23.934 67.2149 22.2354L69.4509 16.4894L71.2969 15.7094H71.5829ZM68.5669 24.6274H71.9729L70.3089 20.0254L68.5669 24.6274ZM90.1316 33.1554C90.0103 33.1554 89.8196 33.1467 89.5596 33.1294C89.2996 33.112 89.0223 33.0947 88.7276 33.0774C88.433 33.06 88.1556 33.0427 87.8956 33.0254C87.6356 33.008 87.445 32.9994 87.3236 32.9994H84.8016C84.6803 32.9994 84.4896 33.008 84.2296 33.0254C83.9696 33.0427 83.6923 33.06 83.3976 33.0774C83.1203 33.0947 82.8516 33.112 82.5916 33.1294C82.3316 33.1467 82.141 33.1554 82.0196 33.1554L81.9676 33.0514L82.0456 32.0634L82.1756 31.9594C82.4356 31.9594 82.739 31.9507 83.0856 31.9334C83.4496 31.916 83.7096 31.838 83.8656 31.6994C84.0043 31.578 84.143 31.422 84.2816 31.2314C84.4203 31.0407 84.5156 30.7027 84.5676 30.2174C84.585 30.096 84.5936 29.9574 84.5936 29.8014C84.611 29.628 84.6196 29.42 84.6196 29.1774C84.637 28.9347 84.6456 28.64 84.6456 28.2934C84.6456 27.9467 84.6456 27.5134 84.6456 26.9934V22.2354C84.6456 21.282 84.637 20.4327 84.6196 19.6874C84.6023 18.942 84.585 18.3874 84.5676 18.0234H84.2816C83.623 18.0234 83.077 18.032 82.6436 18.0494C82.2103 18.0494 81.8636 18.0667 81.6036 18.1014C81.3436 18.1187 81.1443 18.1447 81.0056 18.1794C80.8843 18.214 80.7976 18.2574 80.7456 18.3094C80.555 18.396 80.399 18.5347 80.2776 18.7254C80.1563 18.916 80.0783 19.1414 80.0436 19.4014L79.9396 19.5054H78.8216L79.0036 16.0214L79.1076 15.7874L79.2636 15.7094C79.4023 15.7614 79.7056 15.8134 80.1736 15.8654C80.6416 15.9 81.153 15.926 81.7076 15.9434C82.2623 15.9607 82.791 15.978 83.2936 15.9954C83.8136 15.9954 84.1863 15.9954 84.4116 15.9954H87.6876C87.913 15.9954 88.277 15.9954 88.7796 15.9954C89.2996 15.978 89.837 15.9607 90.3916 15.9434C90.9463 15.926 91.4576 15.9 91.9256 15.8654C92.3936 15.8134 92.697 15.7614 92.8356 15.7094L92.9916 15.7874L93.0956 16.0214L93.3036 19.5054H92.1596L92.0556 19.4014C92.021 19.1414 91.943 18.916 91.8216 18.7254C91.7003 18.5347 91.5443 18.396 91.3536 18.3094C91.3016 18.24 91.2063 18.188 91.0676 18.1534C90.9463 18.1014 90.7556 18.0667 90.4956 18.0494C90.2356 18.032 89.889 18.0234 89.4556 18.0234C89.0396 18.0234 88.5023 18.0234 87.8436 18.0234H87.5576C87.5403 18.4394 87.523 18.994 87.5056 19.6874C87.5056 20.3807 87.5056 21.2214 87.5056 22.2094V26.4734C87.5056 27.0974 87.5056 27.6087 87.5056 28.0074C87.5056 28.3887 87.5056 28.7094 87.5056 28.9694C87.523 29.2294 87.5316 29.4547 87.5316 29.6454C87.549 29.8187 87.5663 30.0094 87.5836 30.2174C87.6183 30.72 87.7136 31.0667 87.8696 31.2574C88.0256 31.448 88.173 31.5954 88.3116 31.6994C88.381 31.7687 88.4763 31.8207 88.5976 31.8554C88.7363 31.89 88.8836 31.916 89.0396 31.9334C89.1956 31.9507 89.3516 31.9594 89.5076 31.9594C89.681 31.9594 89.837 31.9594 89.9756 31.9594L90.1056 32.0634L90.1836 33.0514L90.1316 33.1554ZM102.141 33.1554C102.003 33.138 101.803 33.1207 101.543 33.1034C101.301 33.086 101.032 33.0687 100.737 33.0514C100.46 33.034 100.183 33.0167 99.9054 32.9994C99.6454 32.9994 99.4201 32.9994 99.2294 32.9994H97.6954C97.4874 32.9994 97.2447 32.9994 96.9674 32.9994C96.6901 33.0167 96.4127 33.034 96.1354 33.0514C95.8581 33.0687 95.5894 33.086 95.3294 33.1034C95.0867 33.1207 94.9047 33.138 94.7834 33.1554L94.7314 33.0514L94.8094 32.0634L94.9394 31.9594C95.5981 31.9594 96.0487 31.8814 96.2914 31.7254C96.6554 31.4827 96.8807 30.98 96.9674 30.2174C96.9847 29.9227 96.9934 29.472 96.9934 28.8654C97.0107 28.2414 97.0194 27.6174 97.0194 26.9934V21.2734C97.0194 20.6667 97.0107 20.19 96.9934 19.8434C96.9761 19.4794 96.9501 19.124 96.9154 18.7774C96.8461 18.3094 96.7681 17.9714 96.6814 17.7634C96.6121 17.5554 96.4994 17.3907 96.3434 17.2694C96.2047 17.1827 96.0314 17.122 95.8234 17.0874C95.6327 17.0527 95.3381 17.0354 94.9394 17.0354L94.8094 16.9314L94.7314 15.9434L94.7834 15.8394C95.2341 15.8914 95.6761 15.9347 96.1094 15.9694C96.5601 15.9867 96.9154 15.9954 97.1754 15.9954H99.1514C99.5501 15.9954 100.001 15.9867 100.503 15.9694C101.023 15.952 101.474 15.9434 101.855 15.9434C103.918 15.9434 105.478 16.3334 106.535 17.1134C107.593 17.876 108.121 19.02 108.121 20.5454C108.121 21.6374 107.801 22.634 107.159 23.5354C106.535 24.4194 105.599 25.1907 104.351 25.8494C104.941 26.7334 105.435 27.4527 105.833 28.0074C106.249 28.562 106.605 29.004 106.899 29.3334C107.298 29.8014 107.671 30.1914 108.017 30.5034C108.364 30.8154 108.702 31.0754 109.031 31.2834C109.378 31.4914 109.733 31.6474 110.097 31.7514C110.461 31.8554 110.869 31.9247 111.319 31.9594L111.475 32.0634L111.527 33.0514L111.475 33.1554C110.817 33.19 110.245 33.216 109.759 33.2334C109.274 33.268 108.919 33.2854 108.693 33.2854C107.775 33.2854 106.951 33.034 106.223 32.5314C105.513 32.0114 104.75 31.136 103.935 29.9054C103.745 29.628 103.537 29.316 103.311 28.9694C103.103 28.6227 102.887 28.2847 102.661 27.9554C102.453 27.6087 102.254 27.2794 102.063 26.9674C101.873 26.6554 101.717 26.3867 101.595 26.1614H99.9054C99.9054 26.7507 99.9054 27.262 99.9054 27.6954C99.9054 28.1114 99.9054 28.4754 99.9054 28.7874C99.9227 29.0994 99.9401 29.368 99.9574 29.5934C99.9747 29.8187 99.9921 30.0267 100.009 30.2174C100.079 31.0147 100.269 31.5174 100.581 31.7254C100.703 31.812 100.859 31.8727 101.049 31.9074C101.24 31.942 101.561 31.9594 102.011 31.9594L102.115 32.0634L102.193 33.0514L102.141 33.1554ZM101.231 24.2374C102.497 24.2374 103.485 23.934 104.195 23.3274C104.923 22.7207 105.287 21.88 105.287 20.8054C105.287 19.8347 104.967 19.1327 104.325 18.6994C103.684 18.2487 102.661 18.0234 101.257 18.0234H100.035C99.9834 18.7167 99.9487 19.254 99.9314 19.6354C99.9141 20.0167 99.9054 20.3807 99.9054 20.7274V23.2754C99.9054 23.6394 99.9487 23.8907 100.035 24.0294C100.122 24.168 100.287 24.2374 100.529 24.2374H101.231ZM120.424 15.7094C121.759 15.7094 122.946 15.9434 123.986 16.4114C125.026 16.8794 125.901 17.5207 126.612 18.3354C127.323 19.1327 127.86 20.06 128.224 21.1174C128.605 22.1747 128.796 23.284 128.796 24.4454C128.796 25.5894 128.614 26.6987 128.25 27.7734C127.886 28.8307 127.34 29.7667 126.612 30.5814C125.901 31.396 125.009 32.0547 123.934 32.5574C122.877 33.0427 121.646 33.2854 120.242 33.2854C118.89 33.2854 117.703 33.0514 116.68 32.5834C115.657 32.1154 114.799 31.4914 114.106 30.7114C113.43 29.914 112.919 28.9954 112.572 27.9554C112.225 26.898 112.052 25.7887 112.052 24.6274C112.052 23.3967 112.243 22.244 112.624 21.1694C113.005 20.0774 113.551 19.1327 114.262 18.3354C114.973 17.5207 115.848 16.8794 116.888 16.4114C117.928 15.9434 119.107 15.7094 120.424 15.7094ZM120.398 31.1274C121.247 31.1274 122.001 30.954 122.66 30.6074C123.336 30.2434 123.899 29.7667 124.35 29.1774C124.801 28.5707 125.147 27.8687 125.39 27.0714C125.633 26.2567 125.754 25.39 125.754 24.4714C125.754 23.5354 125.624 22.6687 125.364 21.8714C125.121 21.0567 124.757 20.3547 124.272 19.7654C123.804 19.176 123.232 18.7167 122.556 18.3874C121.88 18.0407 121.117 17.8674 120.268 17.8674C119.436 17.8674 118.699 18.032 118.058 18.3614C117.417 18.6907 116.879 19.15 116.446 19.7394C116.013 20.3287 115.683 21.0307 115.458 21.8454C115.233 22.6427 115.12 23.5094 115.12 24.4454C115.12 25.4854 115.25 26.4214 115.51 27.2534C115.77 28.068 116.134 28.7614 116.602 29.3334C117.07 29.9054 117.625 30.3474 118.266 30.6594C118.907 30.9714 119.618 31.1274 120.398 31.1274ZM134.212 19.9214C134.212 20.372 134.333 20.7534 134.576 21.0654C134.819 21.3774 135.148 21.6547 135.564 21.8974C135.98 22.1227 136.465 22.3394 137.02 22.5474C137.575 22.7554 138.164 22.972 138.788 23.1974C139.412 23.44 140.01 23.7 140.582 23.9774C141.154 24.2374 141.657 24.5667 142.09 24.9654C142.541 25.3467 142.896 25.806 143.156 26.3434C143.433 26.8634 143.572 27.496 143.572 28.2414C143.572 29.004 143.425 29.6974 143.13 30.3214C142.835 30.928 142.411 31.4567 141.856 31.9074C141.319 32.3407 140.651 32.6787 139.854 32.9214C139.074 33.164 138.199 33.2854 137.228 33.2854C136.188 33.2854 135.148 33.1554 134.108 32.8954C133.068 32.6354 132.141 32.28 131.326 31.8294L131.222 31.4914L131.82 28.0074H132.99L133.12 28.1634C133.224 29.3594 133.623 30.2087 134.316 30.7114C135.027 31.214 135.989 31.4654 137.202 31.4654C138.398 31.4654 139.265 31.2574 139.802 30.8414C140.339 30.408 140.608 29.7754 140.608 28.9434C140.608 28.406 140.495 27.964 140.27 27.6174C140.045 27.2707 139.724 26.976 139.308 26.7334C138.909 26.4907 138.424 26.274 137.852 26.0834C137.28 25.8927 136.647 25.6674 135.954 25.4074C135.33 25.182 134.749 24.9394 134.212 24.6794C133.675 24.402 133.207 24.0814 132.808 23.7174C132.427 23.336 132.123 22.8854 131.898 22.3654C131.673 21.8454 131.56 21.2214 131.56 20.4934C131.56 18.968 132.054 17.7894 133.042 16.9574C134.047 16.1254 135.573 15.7094 137.618 15.7094C138.554 15.7094 139.429 15.822 140.244 16.0474C141.059 16.2554 141.743 16.5067 142.298 16.8014L142.402 17.0874L141.986 20.0514H140.738L140.608 19.9214C140.504 19.1934 140.192 18.63 139.672 18.2314C139.152 17.8327 138.424 17.6334 137.488 17.6334C136.448 17.6334 135.642 17.8414 135.07 18.2574C134.498 18.6734 134.212 19.228 134.212 19.9214Z" fill="#44444F"/>
<rect x="3" y="7.49937" width="36" height="36" rx="12" stroke="#0073FF" stroke-width="6"/>
<rect x="19.5" y="8.99937" width="18" height="18" rx="9" stroke="#0073FF" stroke-width="6"/>
</svg>
