<?xml version="1.0"?>
<svg xmlns="http://www.w3.org/2000/svg" xmlns:xlink="http://www.w3.org/1999/xlink" xmlns:svgjs="http://svgjs.com/svgjs" version="1.1" width="512" height="512" x="0" y="0" viewBox="0 0 512 512" style="enable-background:new 0 0 512 512" xml:space="preserve" class=""><g><g xmlns="http://www.w3.org/2000/svg"><path d="m245.76 484.324h-20.134c-3.821 0-6.919 3.098-6.919 6.919s3.098 6.919 6.919 6.919h20.134c3.821 0 6.919-3.098 6.919-6.919s-3.098-6.919-6.919-6.919z" fill="#df5631" data-original="#000000" style="" class=""/><path d="m477.226 426.115-33.626-295.437c-3.543-31.51-29.332-55.606-60.637-57.362v-42.949c-.042-9.122-7.435-16.503-16.557-16.529h-36.906c-9.133.027-16.53 7.424-16.557 16.557v42.807h-113.886v-42.835c-.042-9.122-7.435-16.503-16.557-16.529h-36.905c-9.133.027-16.53 7.424-16.557 16.557v42.923c-31.297 1.769-57.071 25.865-60.61 57.367l-33.626 295.437c-.266 2.376-.401 4.766-.404 7.157-.037 35.797 28.953 64.846 64.75 64.883h78.045c3.821 0 6.919-3.098 6.919-6.919s-3.098-6.919-6.919-6.919h-78.045c-1.893-.001-3.785-.107-5.667-.318-27.967-3.141-48.093-28.359-44.952-56.327l25.739-226.144 16.473 16.107c17.647 17.229 41.343 26.857 66.006 26.818h39.355v14.163c.008 7.475 6.065 13.533 13.54 13.54h92.714c7.475-.008 13.533-6.065 13.54-13.54v-14.163h39.355c24.676.041 48.386-9.592 66.041-26.832l16.441-16.079 25.737 226.124c.212 1.884.318 3.778.319 5.674.011 28.143-22.795 50.967-50.938 50.978h-49.678c-3.821 0-6.919 3.098-6.919 6.919s3.098 6.919 6.919 6.919h49.678c2.403-.001 4.804-.136 7.192-.404 35.575-3.995 61.176-36.07 57.183-71.644zm-150.445-395.72c0-1.502 1.217-2.719 2.719-2.719h36.905c1.49.004 2.7 1.202 2.719 2.691v42.835h-42.344v-42.807zm-181.186-2.719h36.905c1.491 0 2.704 1.201 2.719 2.691v42.835h-42.344v-42.807c.005-1.5 1.22-2.715 2.72-2.719zm64.325 230.946v-41.866l92.139-.291.297 41.859zm201.7-50.909c-15.071 14.713-35.306 22.937-56.368 22.909h-39.355v-14.156c-.008-7.476-6.064-13.536-13.54-13.547h-92.714c-7.476.011-13.533 6.071-13.54 13.547v14.156h-39.341c-21.052.03-41.279-8.186-56.348-22.888l-24.162-23.625 5.903-51.868c2.888-25.737 24.651-45.197 50.55-45.201h246.59c25.897.004 47.658 19.46 50.55 45.194l5.906 51.886z" fill="#df5631" data-original="#000000" style="" class=""/><path d="m314.742 484.324h-20.549c-3.821 0-6.919 3.098-6.919 6.919s3.098 6.919 6.919 6.919h20.549c3.821 0 6.919-3.098 6.919-6.919s-3.098-6.919-6.919-6.919z" fill="#df5631" data-original="#000000" style="" class=""/><path d="m378.548 388.504v-48.176c0-3.821-3.098-6.919-6.919-6.919h-231.258c-3.821 0-6.919 3.098-6.919 6.919v48.176c.027 25.095 20.362 45.434 45.457 45.464h154.181c25.096-.03 45.431-20.368 45.458-45.464zm-13.838 0c-.015 17.458-14.162 31.607-31.619 31.626h-154.182c-17.458-.019-31.604-14.169-31.62-31.626v-41.258h217.42v41.258z" fill="#df5631" data-original="#000000" style="" class=""/></g></g></svg>
